<svg id="Layer_1" data-name="Layer 1" xmlns="http://www.w3.org/2000/svg" viewBox="0 0 260.48 483.89"><defs><style>.cls-1{fill:#d2001a;}.cls-2{fill:#00203f;}</style></defs><title>shoesshop</title><path class="cls-1" d="M427.35,432.35a98.38,98.38,0,0,1,30.58-37.66c-22.05-15.79-33.55-32.84-33.55-58.76,0-28.12,14.6-58.95,56.79-58.95,50.83,0,66,35.16,75.17,70.85l16.76-3.24c-4.33-35.16-6.49-56.79-8.65-76.26-11.36-2.16-41.1-10.27-71.39-10.27-71.38,0-111.4,45.42-111.4,93.56C381.66,387.3,397.74,410.73,427.35,432.35Z" transform="translate(-369.76 -258.06)"/><path class="cls-1" d="M493.06,415.43c-2.17-1.12-4.27-2.23-6.34-3.34-1,1.23-2,2.53-3,3.92-10.91,15.71-11.15,33.6-10,44.56,45.22,24.91,66.34,41.86,66.34,82.49,0,35.15-23.79,62.19-62.73,62.19-56.24,0-80-47-90.86-83.28l-16.76,4.33c3.79,29.2,10.28,66,14.6,81.12,22.17,8.65,50.3,17.84,82.74,17.84,69.77,0,119-43.26,119-100C586.08,473.84,558,449,493.06,415.43Z" transform="translate(-369.76 -258.06)"/><path class="cls-2" d="M514.51,575.38q5.13,2.79,9.86,5.46a64.62,64.62,0,0,0,7.77-15.21,67.67,67.67,0,0,0,2.51-34.86c-43.21-22.65-66.11-41.56-66.11-78.16,0-28.12,14.6-58.94,56.78-58.94,50.84,0,66,35.15,75.18,70.84l16.76-3.24c-4.33-35.16-6.49-56.79-8.65-76.26-11.36-2.16-41.1-10.27-71.39-10.27-71.38,0-111.4,45.43-111.4,93.56C425.82,518.59,457.72,544.55,514.51,575.38Z" transform="translate(-369.76 -258.06)"/><path class="cls-2" d="M585.25,560.43a97.58,97.58,0,0,1-30.71,39.71c20.13,15.57,29.73,32.2,29.73,59.6,0,35.15-23.79,62.19-62.73,62.19-56.24,0-80-47-90.86-83.28L413.92,643c3.79,29.2,10.27,66,14.6,81.12,22.17,8.65,50.3,17.84,82.74,17.84,69.77,0,119-43.26,119-100.05C630.24,605.67,616.24,582.63,585.25,560.43Z" transform="translate(-369.76 -258.06)"/></svg>