<svg id="Layer_1" data-name="Layer 1" xmlns="http://www.w3.org/2000/svg" viewBox="0 0 794.94 483.89"><defs><style>.cls-1,.cls-6{fill:#d2001a;}.cls-2,.cls-3{fill:#00203f;}.cls-3{font-size:181.78px;}.cls-3,.cls-6{font-family:AquireRegular, Aquire;}.cls-4{letter-spacing:-0.02em;}.cls-5{letter-spacing:-0.03em;}.cls-6{font-size:203.69px;}</style></defs><title>shoes shop</title><path class="cls-1" d="M190,432.35a98.51,98.51,0,0,1,30.59-37.66C198.54,378.9,187,361.85,187,335.93c0-28.12,14.6-58.95,56.79-58.95,50.83,0,66,35.16,75.17,70.85l16.76-3.24c-4.32-35.16-6.49-56.79-8.65-76.26-11.36-2.16-41.1-10.27-71.38-10.27-71.39,0-111.41,45.42-111.41,93.56C144.32,387.3,160.4,410.73,190,432.35Z" transform="translate(-132.42 -258.06)"/><path class="cls-1" d="M255.73,415.43c-2.17-1.12-4.28-2.23-6.35-3.34-1,1.23-2,2.53-3,3.92-10.91,15.71-11.15,33.6-10,44.56,45.23,24.91,66.34,41.86,66.34,82.49,0,35.15-23.79,62.19-62.73,62.19-56.24,0-80-47-90.85-83.28l-16.77,4.33c3.79,29.2,10.28,66,14.6,81.12,22.18,8.65,50.3,17.84,82.75,17.84,69.76,0,119-43.26,119-100C348.74,473.84,320.62,449,255.73,415.43Z" transform="translate(-132.42 -258.06)"/><path class="cls-2" d="M277.17,575.38q5.13,2.79,9.86,5.46a65,65,0,0,0,7.78-15.21,67.76,67.76,0,0,0,2.5-34.86c-43.21-22.65-66.11-41.56-66.11-78.16,0-28.12,14.6-58.94,56.79-58.94,50.83,0,66,35.15,75.17,70.84l16.76-3.24c-4.32-35.16-6.49-56.79-8.65-76.26-11.36-2.16-41.1-10.27-71.39-10.27-71.38,0-111.4,45.43-111.4,93.56C188.48,518.59,220.39,544.55,277.17,575.38Z" transform="translate(-132.42 -258.06)"/><path class="cls-2" d="M347.91,560.43a97.35,97.35,0,0,1-30.71,39.71c20.13,15.57,29.73,32.2,29.73,59.6,0,35.15-23.79,62.19-62.73,62.19-56.24,0-80-47-90.85-83.28L176.58,643c3.79,29.2,10.28,66,14.6,81.12,22.18,8.65,50.3,17.84,82.75,17.84,69.76,0,119-43.26,119-100.05C392.9,605.67,378.9,582.63,347.91,560.43Z" transform="translate(-132.42 -258.06)"/><text class="cls-3" transform="translate(315.28 219.73) scale(0.96 1)">h<tspan class="cls-4" x="123.06" y="0">o</tspan><tspan class="cls-5" x="257.22" y="0">e</tspan><tspan x="377.56" y="0">s</tspan></text><text class="cls-6" transform="translate(315.28 418.3)">hop</text></svg>